# xmcd CD database file
#
# Track frame offsets:
#	150
#	21912
#	40682
#	59785
#	79975
#	97502
#	114362
#	128550
#	146577
#	159592
#	175125
#
# Disc length: 2510 seconds
#
# Revision: 0
# Processed by: cddbd v1.5.1PL0 Copyright (c) Steve Scherf et al.
# Submitted via: CDex 1.51
#
DISCID=8709cc0b
DTITLE=Axel Mayer - Eisenbahnträume
DYEAR=1997
DGENRE=Country
TTITLE0=Das Krokodil
TTITLE1=Wenn ich einmal groß bin, werd ich Dampflokführer
TTITLE2=So weit die Schienen geh´n
TTITLE3=In einem Zug quer durch Rußland
TTITLE4=Königin der Schienen
TTITLE5=Der alte Schienenbus
TTITLE6=Eisenbahnträume
TTITLE7=Eine starke Frau
TTITLE8=Ein Model sein, das ist nicht leicht
TTITLE9=Der kruckenbergsche Schienenzeppelin
TTITLE10=Endstation
EXTD=YEAR: 1997
EXTT0=
EXTT1=
EXTT2=
EXTT3=
EXTT4=
EXTT5=
EXTT6=
EXTT7=
EXTT8=
EXTT9=
EXTT10=
PLAYORDER=
